<?xml version="1.0" encoding="UTF-8"?><!DOCTYPE svg PUBLIC "-//W3C//DTD SVG 1.1//EN" "http://www.w3.org/Graphics/SVG/1.1/DTD/svg11.dtd"><svg xmlns="http://www.w3.org/2000/svg"><symbol id="kotik" viewBox="0 0 400 400">
        <!-- Created with Method Draw - http://github.com/duopixel/Method-Draw/ -->
        <g>
            <title>background</title>
            <rect fill="#fff" id="canvas_background" height="402" width="402" y="-1" x="-1"/>
            <g display="none" id="canvasGrid">
                <rect fill="url(#gridpattern)" stroke-width="0" y="0" x="0" height="100%" width="100%" id="svg_7"/>
            </g>
        </g>
        <title>Layer 1</title>
        <ellipse ry="55" rx="55" cy="120.5" cx="154.5" stroke-width="1.5" stroke="#000" fill="#fff"/>
        <ellipse ry="21.5" rx="11" cy="58" cx="116.5" stroke-width="1.5" stroke="#000" fill="#fff"/>
        <ellipse ry="22.5" rx="5.5" cy="53" cx="189" stroke-width="1.5" stroke="#000" fill="#fff"/>
        <g id="svg_8">
            <line y2="90.5" x2="288.5" y1="115.5" x1="186.5" stroke-width="1.5" stroke="#000" fill="none"/>
            <line y2="134.5" x2="193.5" y1="139.5" x1="304.5" stroke-width="1.5" stroke="#000" fill="none"/>
            <line y2="146.5" x2="192.5" y1="167.5" x1="302.5" stroke-width="1.5" stroke="#000" fill="none"/>
        </g>
        <g transform="rotate(-185 70.50000000000001,139.00000000000003) ">
            <line y2="100.5" x2="113.5" y1="125.5" x1="11.5" stroke-width="1.5" stroke="#000" fill="none"/>
            <line y2="144.5" x2="18.5" y1="149.5" x1="129.5" stroke-width="1.5" stroke="#000" fill="none"/>
            <line y2="156.5" x2="17.5" y1="177.5" x1="127.5" stroke-width="1.5" stroke="#000" fill="none"/>
        </g>
        <ellipse fill="#fff" stroke="black" class="body" ry="55.5" rx="107.5" cy="221" cx="248"/>
        <ellipse fill="#fff" stroke="black" class="tail" ry="76" rx="8.5" cy="128.5" cx="353"/>
        <g class="legs" fill="darkgray"> 
            <ellipse ry="54.5" rx="7.5" cy="290" cx="153"/>
            <ellipse ry="58" rx="9.5" cy="309.5" cx="190"/>
            <ellipse ry="48" rx="10" cy="291.5" cx="311.5"/>
            <ellipse ry="42.5" rx="8.5" cy="269" cx="342"/>
        </g>
        
        <circle class="eye" r="8" cx="134.5" cy="94.5" fill="darkgreen"/>
        <circle class="eye" r="8" cx="171.5" cy="94.5" fill="darkgreen"/>
        <ellipse class="nose" ry="5.5" rx="5.5" cy="118" cx="153" fill="grey"/>
        <g class="checkmark" visibility="hidden">
          <line y2="250" x2="270" y1="194.5" x1="234.5" stroke-width="3" stroke="#000" fill="none"/>
          <line y2="250" x2="270" y1="170.5" x1="314.5" stroke-width="3" stroke="#000" fill="none"/>
        </g>
    </symbol></svg>